<svg id="visual" viewBox="0 0 900 600" width="900" height="600" xmlns="http://www.w3.org/2000/svg" xmlns:xlink="http://www.w3.org/1999/xlink" version="1.1"><path d="M0 162L18.8 158.2C37.7 154.3 75.3 146.7 112.8 137.2C150.3 127.7 187.7 116.3 225.2 115.2C262.7 114 300.3 123 337.8 136.2C375.3 149.3 412.7 166.7 450.2 164.2C487.7 161.7 525.3 139.3 562.8 127.8C600.3 116.3 637.7 115.7 675.2 112C712.7 108.3 750.3 101.7 787.8 108.7C825.3 115.7 862.7 136.3 881.3 146.7L900 157L900 0L881.3 0C862.7 0 825.3 0 787.8 0C750.3 0 712.7 0 675.2 0C637.7 0 600.3 0 562.8 0C525.3 0 487.7 0 450.2 0C412.7 0 375.3 0 337.8 0C300.3 0 262.7 0 225.2 0C187.7 0 150.3 0 112.8 0C75.3 0 37.7 0 18.8 0L0 0Z" fill="#f5f5f5" stroke-linecap="round" stroke-linejoin="miter"></path></svg>