<svg xmlns="http://www.w3.org/2000/svg" width="50" height="50" viewBox="0 0 806.02 674">
<style>
		svg:nth-child(1) rect {
			fill: #000000;
		}
        svg:nth-child(1) path {
			fill: #000000;
		}
        svg:nth-child(1) polygon {
			fill: #000000;
		}
		@media (prefers-color-scheme: dark) {
			svg:nth-child(1) rect {
				fill: #FFFFFF;
			}
            svg:nth-child(1) path {
				fill: #FFFFFF;
			}
            svg:nth-child(1) polygon {
				fill: #FFFFFF;
			}
		}
	</style>
<g id="Layer_2" data-name="Layer 2"><g id="Layer_1-2" data-name="Layer 1"><rect x="298.62" width="48.3" height="48.3"/><rect x="709.13" y="48.3" width="48.3" height="48.3"/><rect x="660.84" y="96.59" width="48.3" height="48.3"/><rect x="709.13" y="144.89" width="48.3" height="48.3"/><polygon points="660.84 241.48 661 239.48 661 191.18 660.84 193.18 612.54 193.18 612.54 241.48 660.84 241.48"/><rect x="564.24" y="241.48" width="48.3" height="48.3"/><polygon points="660.84 289.77 612.54 289.77 612.54 338.07 660.84 338.07 661 338.07 661 289.77 660.84 289.77"/><rect x="659.13" y="338.07" width="48.3" height="48.3"/><rect x="709.43" y="241.48" width="48.3" height="48.3"/><rect x="757.72" y="289.77" width="48.3" height="48.3"/><rect x="757.72" y="193.18" width="48.3" height="48.3"/><rect x="566.44" y="480.76" width="48.3" height="48.3"/><rect x="518.15" y="529.05" width="48.3" height="48.3"/><rect x="469.85" y="577.35" width="48.3" height="48.3"/><polygon points="612.54 386.36 611.84 386.36 564.24 386.36 564.24 434.66 611.84 434.66 612.54 434.66 660.13 434.66 660.13 386.36 612.54 386.36"/><polygon points="515.95 386.36 564.24 386.36 564.24 338.07 515.95 338.07 467.65 338.07 467.65 386.36 515.95 386.36"/><rect x="467.65" y="434.66" width="48.3" height="48.3"/><rect x="660.13" y="433.66" width="48.3" height="48.3"/><path d="M612.54,193.18V144.89H516V96.59h96.59V48.3h48.3V0h-206L319.7,203.26,251.2,96.59h47.42V48.3H250.33V0H0L33,48.3,226.18,350.54v229L227,674l47.47-.16H419.36v-94.3h-48.3V531.25h96.59V483H419.36V434.66h48.29v-48.3H371.06V338.07h96.59v-48.3H419.36V241.48h48.29v48.29H516V241.48h48.29v-48.3ZM250.33,96.59H202v48.3H153.71V96.59H202V48.3h48.3V96.59ZM371.06,483H322.77V434.66h48.29Z"/></g></g></svg>
